<?xml version="1.0" standalone="no"?>
<!DOCTYPE svg PUBLIC "-//W3C//DTD SVG 20010904//EN"
 "http://www.w3.org/TR/2001/REC-SVG-20010904/DTD/svg10.dtd">
<svg version="1.0" xmlns="http://www.w3.org/2000/svg"
 width="250.000000pt" height="250.000000pt" viewBox="0 0 250.000000 250.000000"
 preserveAspectRatio="xMidYMid meet">
<metadata>
Created by potrace 1.14, written by Peter Selinger 2001-2017
</metadata>
<g transform="translate(0.000000,250.000000) scale(0.100000,-0.100000)"
fill="#000000" stroke="none">
<path d="M1148 2355 c-1 -1 -28 -5 -58 -9 -214 -23 -464 -156 -634 -337 -144
-152 -257 -372 -287 -558 -19 -123 -13 -365 12 -466 89 -351 353 -648 694
-779 220 -84 529 -88 755 -8 389 137 673 480 735 887 10 63 7 259 -5 347 -45
325 -264 627 -581 801 -73 40 -248 102 -319 112 -47 7 -306 16 -312 10z m327
-78 c398 -89 712 -394 811 -787 26 -105 26 -368 0 -496 -16 -76 -103 -255
-179 -368 -100 -148 -333 -317 -526 -381 -93 -31 -205 -43 -361 -40 -175 4
-318 44 -475 135 -89 51 -109 67 -208 160 -321 303 -413 781 -227 1177 123
263 364 481 628 568 163 53 382 66 537 32z"/>
<path d="M1149 2206 c-2 -2 -26 -7 -54 -11 -165 -22 -373 -132 -511 -272 -128
-129 -220 -295 -260 -468 -27 -116 -25 -310 4 -429 37 -148 133 -329 229 -431
46 -50 157 -141 207 -170 45 -27 47 -27 61 -9 25 35 145 271 145 287 0 9 -15
26 -32 38 -52 35 -150 142 -186 202 -42 69 -79 179 -86 252 l-6 56 143 -3 142
-3 -3 -30 c-2 -16 -6 -32 -8 -34 -2 -2 -43 -5 -91 -6 -49 -1 -88 -6 -87 -11 1
-5 9 -34 18 -64 37 -115 117 -223 208 -281 29 -18 57 -38 61 -44 5 -5 6 -42 4
-80 -4 -58 -16 -95 -61 -200 -31 -71 -56 -135 -56 -141 0 -15 28 -26 42 -18
15 9 125 242 132 279 7 37 12 203 6 208 -3 2 -23 11 -45 21 -58 25 -110 70
-102 89 9 23 47 46 129 74 95 34 239 36 335 5 67 -21 153 -67 153 -82 0 -15
-62 -58 -121 -83 -59 -26 -142 -47 -189 -47 -17 0 -30 -3 -31 -7 0 -5 -1 -45
-2 -90 -2 -80 -4 -84 -81 -238 -43 -86 -75 -159 -71 -163 9 -9 287 -16 330 -8
l34 7 -71 145 c-62 126 -71 154 -76 214 -4 54 -2 70 9 74 8 2 39 9 69 16 172
39 311 165 370 332 20 58 31 140 21 156 -3 5 -53 17 -111 26 -58 8 -120 18
-137 22 l-33 7 -1 -52 c-1 -28 -1 -60 -1 -71 0 -53 2 -56 54 -73 38 -12 55
-13 65 -5 23 18 14 44 -19 59 -22 9 -33 21 -33 34 0 18 6 20 64 17 78 -3 94
-14 85 -56 -5 -26 -58 -143 -69 -154 -2 -2 -32 11 -67 28 -35 18 -85 41 -113
51 l-50 17 -3 109 -2 108 75 39 c57 29 87 52 118 92 23 29 45 53 49 53 3 1 17
-18 30 -41 16 -29 31 -44 47 -46 22 -4 23 -1 18 31 -13 82 -134 218 -238 270
-90 44 -150 56 -266 55 l-107 -2 -8 35 c-3 18 -3 38 2 42 13 14 200 15 266 1
69 -14 187 -70 254 -121 25 -19 67 -62 94 -96 46 -59 106 -168 106 -194 0 -18
40 -27 56 -12 11 12 9 23 -11 72 -13 32 -38 83 -57 114 -38 63 -154 185 -198
208 -17 9 -30 18 -30 21 0 17 33 64 44 64 8 0 37 -18 64 -40 146 -114 238
-255 283 -429 26 -103 21 -272 -12 -400 -20 -77 -22 -93 -10 -101 29 -17 46 5
78 100 18 55 26 309 12 394 -36 218 -208 444 -420 554 -132 68 -211 86 -384
85 -172 -1 -260 -21 -260 -58 0 -17 6 -20 40 -19 22 0 69 4 105 9 140 20 269
7 398 -38 35 -12 36 -14 22 -51 -12 -32 -29 -32 -130 -6 -118 31 -381 15 -396
-24 -2 -6 5 -38 16 -70 11 -33 20 -61 20 -62 0 -2 -26 -20 -57 -40 -32 -20
-88 -65 -125 -100 -62 -60 -83 -71 -128 -64 -8 1 -17 4 -19 6 -8 8 41 71 112
143 l75 76 -32 82 c-17 45 -36 87 -43 94 -16 16 -76 -23 -148 -96 -244 -245
-316 -571 -196 -880 51 -133 188 -321 228 -313 9 2 21 11 27 20 8 14 2 25 -33
60 -134 135 -213 330 -213 528 -1 206 68 365 235 543 29 31 56 57 59 57 3 0
13 -16 23 -36 18 -39 18 -39 -43 -104 -40 -43 -137 -187 -147 -217 -4 -16 -2
-23 7 -24 7 0 22 -2 33 -4 11 -2 55 -6 98 -8 l77 -5 30 43 c91 132 255 211
413 200 97 -8 236 -73 273 -129 16 -25 15 -27 -12 -64 -16 -20 -40 -47 -54
-59 -31 -28 -106 -66 -134 -67 -12 -1 -25 -4 -31 -8 -6 -4 -10 -59 -9 -137 l1
-131 -73 0 -74 0 0 134 0 134 -49 12 c-29 7 -65 25 -88 45 -34 29 -36 34 -23
50 21 26 101 75 111 69 5 -3 9 -21 9 -39 0 -78 99 -130 168 -89 39 23 57 56
56 106 -2 51 -44 97 -95 102 -46 4 -168 -18 -205 -37 -43 -22 -134 -106 -134
-123 0 -24 77 -100 127 -125 27 -13 50 -25 53 -27 8 -5 7 -196 -1 -213 -4 -8
-26 -21 -49 -28 -22 -6 -67 -28 -99 -46 -33 -19 -64 -35 -69 -35 -10 0 -62 91
-62 109 0 6 18 11 45 11 88 0 118 35 119 139 l1 56 -203 3 -203 3 2 -74 c5
-175 76 -335 210 -468 l86 -87 -49 -96 c-28 -53 -55 -96 -61 -96 -30 0 -179
138 -248 231 -327 442 -171 1080 327 1332 51 26 149 62 195 71 13 3 35 8 49
11 101 23 326 7 440 -33 208 -72 409 -247 510 -443 77 -149 99 -249 96 -424
-4 -162 -20 -240 -76 -362 -49 -105 -87 -159 -178 -255 -64 -67 -152 -138
-172 -138 -3 0 -14 14 -24 31 l-18 31 38 31 c22 17 70 61 107 97 63 60 67 66
54 84 -14 19 -16 19 -42 2 -14 -9 -45 -35 -68 -57 -23 -22 -72 -60 -109 -85
-38 -25 -68 -47 -68 -50 0 -5 77 -134 96 -158 13 -19 17 -18 97 37 149 103
252 218 327 367 95 188 117 320 96 576 -18 218 -195 515 -379 637 -120 79
-274 149 -369 168 -51 10 -312 22 -319 15z m148 -658 c5 -7 9 -17 8 -23 -3
-24 -17 -54 -28 -58 -18 -7 -57 10 -58 25 -1 7 -2 20 -3 28 -2 25 15 40 44 40
15 0 32 -6 37 -12z m15 -1113 c26 -50 33 -72 25 -77 -18 -11 -145 -10 -152 2
-11 17 63 152 80 147 5 -2 27 -34 47 -72z"/>
<path d="M1851 1133 c-25 -107 -77 -212 -137 -281 -56 -64 -175 -143 -260
-173 -35 -12 -64 -26 -64 -31 0 -11 94 -216 121 -265 26 -47 37 -54 60 -40 20
13 19 16 -48 160 -28 58 -43 101 -37 107 5 4 36 23 69 41 133 71 253 192 308
311 47 103 72 216 53 246 -4 7 -15 12 -25 12 -15 0 -23 -17 -40 -87z"/>
</g>
</svg>
